User Type,Username,Date,Text
[T],Tyr3ll,2012-12-01T18:06Z,"General

Complete name                  : C:UsersDynastarDownloadsBlade_Runner.(1982)@V.O@HQ-HD.1080p-Remastered_I.T.C@H263[)(]E-AC3-(US)+(En,Fr,Es_sub)-PreRC1.mkv

Format                         : Matroska
Format version                 : Version 2
File size                      : 14.6 GiB
Duration                       : 1h 57mn
Overall bit rate               : 17.8 Mbps
Encoded date                   : UTC 2012-12-01 04:56:53
Writing application            : Lavf54.36.100
Writing library                : Lavf54.36.100

Video
ID                             : 1
Format                         : H.263
Codec ID                       : V_MS/VFW/FOURCC / H263
Duration                       : 1h 57mn
Bit rate                       : 15.9 Mbps
Width                          : 1 920 pixels
Height                         : 1 072 pixels
Display aspect ratio           : 16:9
Frame rate mode                : Constant
Frame rate                     : 23.976 fps
Bit depth                      : 8 bits
Compression mode               : Lossy
Bits/(Pixel*Frame)             : 0.322
Stream size                    : 13.0 GiB (89%)
Language                       : English
Default                        : Yes
Forced                         : No

Audio
ID                             : 2
Format                         : E-AC-3
Format/Info                    : Audio Coding 3
Format settings, Endianness    : Big
Codec ID                       : A_EAC3
Duration                       : 1h 57mn
Bit rate mode                  : Constant
Bit rate                       : 1 536 Kbps
Channel(s)                     : 6 channels
Channel positions              : Front: L C R, Side: L R, LFE
Sampling rate                  : 48.0 KHz
Bit depth                      : 32 bits
Compression mode               : Lossy
Stream size                    : 1.26 GiB (9%)
Language                       : English
Default                        : Yes
Forced                         : No

Text #1
ID                             : 3
Format                         : PGS
Codec ID                       : S_HDMV/PGS
Codec ID/Info                  : The same subtitle format used on BDs/HD-DVDs
Default                        : Yes
Forced                         : No

Text #2
ID                             : 4
Format                         : PGS
Codec ID                       : S_HDMV/PGS
Codec ID/Info                  : The same subtitle format used on BDs/HD-DVDs
Default                        : Yes
Forced                         : No

Text #3
ID                             : 5
Format                         : PGS
Codec ID                       : S_HDMV/PGS
Codec ID/Info                  : The same subtitle format used on BDs/HD-DVDs
Default                        : Yes
Forced                         : No

Menu
00:00:00.000                   : :Chapter 01
00:03:11.816                   : :Chapter 02
00:04:45.702                   : :Chapter 03
00:07:39.834                   : :Chapter 04
00:11:32.441                   : :Chapter 05
00:13:37.650                   : :Chapter 06
00:16:52.928                   : :Chapter 07
00:23:18.271                   : :Chapter 08
00:25:45.043                   : :Chapter 09
00:28:37.799                   : :Chapter 10
00:31:00.942                   : :Chapter 11
00:36:58.633                   : :Chapter 12
00:42:09.777                   : :Chapter 13
00:46:27.159                   : :Chapter 14
00:48:58.518                   : :Chapter 15
00:55:09.472                   : :Chapter 16
00:57:17.851                   : :Chapter 17
00:59:35.571                   : :Chapter 18
01:01:39.987                   : :Chapter 19
01:03:06.574                   : :Chapter 20
01:07:34.967                   : :Chapter 21
01:12:30.095                   : :Chapter 22
01:16:04.101                   : :Chapter 23
01:20:03.048                   : :Chapter 24
01:22:26.107                   : :Chapter 25
01:27:03.801                   : :Chapter 26
01:28:35.810                   : :Chapter 27
01:33:52.793                   : :Chapter 28
01:36:44.882                  "
[T],Tyr3ll,2012-12-01T18:20Z,"@Bittorrent and Âľorrent peers :
We use ""rating"" page aka ""Voter"" as directly present in the interface of both torrent client to tell and letting you you some possible usefull tips that can concerning certain specific peers and more so.
Btw,please :
if you have at least 1 meg up speed real,set your global connection number to 1000 for best flexibility with and on our seeds.
Ty for understanding
be cooperative and be observative,please,thx."
